<svg preserveAspectRatio="none" width="100%" height="100%" overflow="visible" style="display: block;" viewBox="0 0 133 14" fill="none" xmlns="http://www.w3.org/2000/svg">
<path id="Union" d="M8.40039 0C11.4925 0.000210981 13.9998 2.50747 14 5.59961C14 8.69192 11.4927 11.2 8.40039 11.2002H2.7998V14H0V0H8.40039ZM25.2002 11.2002H33.5996V14H22.4004V0H25.2002V11.2002ZM57.4004 14H54.5996L53.2002 11.2002H44.7998L43.4004 14H40.5996L47.5996 0H50.4004L57.4004 14ZM67.2002 0L75.5996 9.7998V0H78.4004V14H75.5996L67.2002 4.2002V14H64.4004V0H67.2002ZM89.5996 14H86.7998V0H89.5996V14ZM112 2.7998H106.4V14H103.6V2.7998H98V0H112V2.7998ZM126 6.2998L130.2 0H133L127.4 8.40039V14H124.6V8.40039L119 0H121.8L126 6.2998ZM2.7998 8.40039H8.40039C9.94643 8.40018 11.2002 7.1457 11.2002 5.59961C11.2 4.0537 9.9463 2.80002 8.40039 2.7998H2.7998V8.40039ZM46.2002 8.40039H51.7998L49 2.7998L46.2002 8.40039Z" fill="var(--fill-0, #202020)"/>
</svg>
